<svg width="1715" height="1715" viewBox="0 0 1715 1715" fill="none" xmlns="http://www.w3.org/2000/svg">
<rect width="1715" height="1715" fill="black"/>
<circle cx="855.64" cy="867.549" r="724.632" fill="url(#paint0_linear_2990_79)"/>
<circle cx="855.689" cy="857.875" r="553.846" transform="rotate(-180 855.689 857.875)" fill="black" stroke="#1FC646" stroke-width="10.9854"/>
<path d="M796.205 239.194C954.199 329.347 1023.89 451.02 1053.68 550.594C1068.51 600.187 1073.41 644.12 1074.59 675.753C1074.63 676.591 1074.65 677.421 1074.68 678.242C1087.03 661.822 1098.32 637.871 1098.32 604.602V532.112L1136.28 593.865C1213.93 720.17 1248.78 843.163 1248.78 949.201C1248.78 1119.03 1137.68 1262.87 984.251 1312.08L967.174 1275.15C1021.25 1241.56 1057.19 1181.68 1057.19 1113.43C1057.19 1033.21 1020.74 987.919 979.304 933.767C943.377 886.815 905.176 834.63 894.67 751.969C839.91 807.914 817.889 875.959 810.176 934.022C805.679 967.876 806.113 997.969 807.677 1019.57C808.457 1030.35 809.515 1038.97 810.362 1044.81C810.786 1047.72 811.156 1049.95 811.412 1051.4C811.54 1052.12 811.638 1052.65 811.701 1052.98C811.732 1053.14 811.754 1053.26 811.767 1053.32C811.769 1053.33 811.77 1053.34 811.771 1053.34L818.805 1087.66L785.442 1076.99L791.689 1057.46L786.215 1074.54C785.429 1076.98 785.423 1076.98 785.416 1076.98C785.411 1076.98 785.397 1076.97 785.388 1076.97C785.368 1076.96 785.346 1076.95 785.324 1076.95C785.28 1076.93 785.23 1076.92 785.176 1076.9C785.066 1076.86 784.936 1076.82 784.786 1076.77C784.487 1076.66 784.108 1076.53 783.656 1076.36C782.753 1076.03 781.554 1075.56 780.104 1074.94C777.209 1073.71 773.292 1071.86 768.729 1069.25C759.62 1064.04 747.78 1055.7 736.396 1043.02C723.471 1028.63 711.69 1009.24 704.843 983.732C684.646 1030.46 676.758 1074.55 676.758 1113.43C676.758 1181.03 712.009 1240.41 765.23 1274.18L747.799 1310.95C596.169 1260.69 486.742 1117.75 486.742 949.201C486.742 790.72 563.666 701.293 634.079 610.934C704.071 521.116 770.164 428.072 765.553 257.554L764.568 221.143L796.205 239.194ZM811.774 1053.36C811.776 1053.36 811.777 1053.37 811.777 1053.37C811.777 1053.37 811.778 1053.37 811.777 1053.37C811.777 1053.37 811.776 1053.36 811.775 1053.36H811.774Z" fill="black" stroke="black" stroke-width="41"/>
<path fill-rule="evenodd" clip-rule="evenodd" d="M754.248 1291.49C610.756 1243.92 507.242 1108.65 507.242 949.201C507.242 648.194 795.659 612.498 786.045 257C1091.67 431.393 1052.81 725.142 1052.81 725.142C1052.81 725.142 1118.82 690.592 1118.82 604.601C1194.84 728.262 1228.28 847.585 1228.28 949.201C1228.28 1109.87 1123.19 1245.99 977.989 1292.56C1037.84 1255.39 1077.69 1189.06 1077.69 1113.43C1077.69 937.496 913.849 911.9 912.369 708.853C746.569 837.295 791.69 1057.46 791.69 1057.46C791.69 1057.46 708.737 1030.92 720.237 912.018C673.437 984.294 656.258 1054.04 656.258 1113.43C656.258 1188.34 695.35 1254.12 754.248 1291.49Z" fill="url(#paint1_linear_2990_79)"/>
<defs>
<linearGradient id="paint0_linear_2990_79" x1="855.64" y1="142.917" x2="855.64" y2="1592.18" gradientUnits="userSpaceOnUse">
<stop stop-color="#0BFDC5"/>
<stop offset="1" stop-color="#0BDC5B"/>
</linearGradient>
<linearGradient id="paint1_linear_2990_79" x1="867.763" y1="257" x2="867.763" y2="1292.56" gradientUnits="userSpaceOnUse">
<stop stop-color="#BEFFE3"/>
<stop offset="1" stop-color="#07B847"/>
</linearGradient>
</defs>
</svg>
