<!-- by TradingView --><svg width="56" height="56" viewBox="0 0 56 56" xmlns="http://www.w3.org/2000/svg"><path fill="#F0F3FA" d="M0 0h56v56H0z"/><path d="M39 22.74V19h-4.97l-.78 4h2.23l-.72 3h-2.08l-.92 4.24-.14.63c-.18 1.19.34 1.13 2.01 1.13l-.76 4h-2.92c-2.77 0-5.02-.21-4.43-3.03.1-.44.2-.86.28-1.28L26.85 26H24.7l.72-3h2.15l.78-4H26v-6h-7v12h-9c.22 3.1 2.97 3.5 3.97 5.7.7 1.52 1.3 4.19 3.31 4.21 1.54.02 1.54-1.99 3.53-1.99 1.99 0 2.87 3.76 4.64 6.86 1.32 2.44 3.52 4.07 5.51 4.2 1.64.12 2.43-.44 2.43-.44a6.45 6.45 0 0 1-.66-3.1c0-1.98 1.55-3.97 3.31-5.3A17.08 17.08 0 0 1 42 32.48v-6.2s-3-.94-3-3.54ZM30.1 32l2.62-13H29.7L27.1 32h3Zm3.36-17h-3l-.56 3h3l.56-3Z" fill="#C00"/></svg>